<?xml version="1.0" encoding="iso-8859-1"?>
<!-- Generator: Adobe Illustrator 22.1.0, SVG Export Plug-In . SVG Version: 6.00 Build 0)  -->
<svg version="1.1" id="Layer_1_1_" xmlns="http://www.w3.org/2000/svg" xmlns:xlink="http://www.w3.org/1999/xlink" x="0px" y="0px"
	 viewBox="0 0 64 64" style="enable-background:new 0 0 64 64;" xml:space="preserve">
<polygon points="50.854,5.95 49,2 47.146,5.95 43,6.584 46,9.658 45.292,14 49,11.95 52.708,14 52,9.658 55,6.584 "/>
<rect x="39" y="54" width="2" height="2"/>
<rect x="54" y="41" width="2" height="2"/>
<rect x="43" y="30" width="2" height="2"/>
<path d="M31.132,15l4.528-3.347C35.875,11.495,36,11.254,36,11c0-0.254-0.125-0.495-0.34-0.653L31.132,7L30,8.307L33.645,11
	L30,13.693L31.132,15z"/>
<path d="M36.5,53H37v-4h-6v1c0,1.105-0.895,2-2,2s-2-0.895-2-2v-1h-5v13h15v-4h-0.5c-1.381,0-2.5-1.119-2.5-2.5
	C34,54.119,35.119,53,36.5,53z M31.53,55.884l-3.823,3.823C27.512,59.902,27.256,60,27,60s-0.512-0.098-0.707-0.293l-1.823-1.823
	c-0.098-0.098-0.098-0.256,0-0.354l1.061-1.06c0.098-0.098,0.256-0.098,0.354,0l0.939,0.939c0.098,0.098,0.256,0.098,0.354,0
	l2.939-2.939c0.098-0.098,0.256-0.098,0.354,0l1.061,1.06C31.628,55.628,31.628,55.786,31.53,55.884z"/>
<path d="M37,33h1c1.105,0,2-0.895,2-2c0-1.105-0.895-2-2-2h-1v-4H22v13h5v1c0,1.105,0.895,2,2,2s2-0.895,2-2v-1h6V33z M33.53,29.884
	l-3.823,3.823C29.512,33.902,29.256,34,29,34s-0.512-0.098-0.707-0.293l-1.823-1.823c-0.098-0.098-0.098-0.256,0-0.354l1.061-1.06
	c0.098-0.098,0.256-0.098,0.354,0l0.939,0.939c0.098,0.098,0.256,0.098,0.354,0l2.939-2.939c0.098-0.098,0.256-0.098,0.354,0
	l1.061,1.06C33.628,29.628,33.628,29.786,33.53,29.884z"/>
<path d="M47,29h1c1.105,0,2,0.895,2,2c0,1.105-0.895,2-2,2h-1v5h5v-0.5c0-1.381,1.119-2.5,2.5-2.5s2.5,1.119,2.5,2.5V38h5V25H47V29z
	 M52.47,30.53l1.061-1.06c0.098-0.098,0.256-0.098,0.354,0l0.939,0.939c0.098,0.098,0.256,0.098,0.354,0l2.939-2.939
	c0.098-0.098,0.256-0.098,0.354,0l1.061,1.06c0.098,0.098,0.098,0.256,0,0.354l-3.823,3.823C55.512,32.902,55.256,33,55,33
	s-0.512-0.098-0.707-0.293l-1.823-1.823C52.372,30.786,52.372,30.628,52.47,30.53z"/>
<path d="M57,48.5c0-1.381-1.119-2.5-2.5-2.5S52,47.119,52,48.5V49h-5v4h-0.5c-1.381,0-2.5,1.119-2.5,2.5c0,1.381,1.119,2.5,2.5,2.5
	H47v4h15V49h-5V48.5z M57.53,53.53c0.098,0.098,0.098,0.256,0,0.354l-3.823,3.823C53.512,57.902,53.256,58,53,58
	s-0.512-0.098-0.707-0.293l-1.823-1.823c-0.098-0.098-0.098-0.256,0-0.354l1.061-1.06c0.098-0.098,0.256-0.098,0.354,0l0.939,0.939
	c0.098,0.098,0.256,0.098,0.354,0l2.939-2.939c0.098-0.098,0.256-0.098,0.354,0L57.53,53.53z"/>
<rect x="8" y="26" width="2" height="2"/>
<rect x="8" y="22" width="2" height="2"/>
<rect x="12" y="30" width="2" height="2"/>
<rect x="16" y="30" width="2" height="2"/>
<rect x="8" y="30" width="2" height="2"/>
<rect x="8" y="18" width="2" height="2"/>
<rect x="8" y="14" width="2" height="2"/>
<rect x="8" y="10" width="2" height="2"/>
<rect x="12" y="10" width="2" height="2"/>
<rect x="16" y="10" width="2" height="2"/>
<rect x="20" y="10" width="2" height="2"/>
<rect x="24" y="10" width="2" height="2"/>
<rect x="28" y="10" width="2" height="2"/>
<path d="M16,54c0-2.674-1.751-4.938-4.168-5.713C13.716,47.274,15,45.284,15,43c0-3.309-2.691-6-6-6s-6,2.691-6,6
	c0,2.285,1.284,4.274,3.168,5.287C3.751,49.062,2,51.325,2,54v7l14,0V54z M9,57l-2-4l1.608-4.02C8.738,48.988,8.868,49,9,49
	s0.262-0.011,0.392-0.02L11,53L9,57z M9,47c-2.206,0-4-1.794-4-4c0-0.349,0.059-0.681,0.143-1.004C6.287,41.364,7.599,41,9,41
	s2.713,0.364,3.857,0.996C12.941,42.318,13,42.651,13,43C13,45.205,11.206,47,9,47z"/>
</svg>
