<?xml version="1.0" encoding="iso-8859-1"?>
<!-- Generator: Adobe Illustrator 16.0.0, SVG Export Plug-In . SVG Version: 6.00 Build 0)  -->
<!DOCTYPE svg PUBLIC "-//W3C//DTD SVG 1.1//EN" "http://www.w3.org/Graphics/SVG/1.1/DTD/svg11.dtd">
<svg version="1.1" xmlns="http://www.w3.org/2000/svg" xmlns:xlink="http://www.w3.org/1999/xlink" x="0px" y="0px" width="512px"
	 height="512px" viewBox="0 0 512 512" style="enable-background:new 0 0 512 512;" xml:space="preserve">
<g id="_x32_23_-_Business_x2C__development_x2C__modern_x2C__solutions">
	<g>
		<path d="M444.26,346.917c9.786-12.56,20.878-26.795,27.169-50.772c7.371-27.934-6.625-106.832-23.801-146.163
			c-7.721-17.679-15.626-27.09-24.903-29.622c-2.279-0.616-4.601-0.929-6.9-0.929c-19.493,0-32.331,21.372-35.213,36.506
			c-3.99,20.472-0.164,51.226,6.615,76.025c-23.243,1.584-44.305,29.342-58.043,52.737c-14.845,25.281-27.19,55.839-29.351,72.616
			c-0.441,3.309-0.658,6.921-0.673,10.852l-3.404-1.188c-5.218-1.815-10.916,0.935-12.736,6.148l-11.112,31.857
			c-5.247,15.04,0.801,31.999,14.381,40.325L342.868,480H167.132l56.58-34.689c13.58-8.326,19.628-25.285,14.381-40.325
			l-11.113-31.857c-1.819-5.215-7.521-7.965-12.735-6.148l-3.404,1.188c-0.014-3.922-0.23-7.521-0.668-10.808
			c-2.166-16.821-14.512-47.379-29.357-72.66c-13.738-23.396-34.799-51.153-58.042-52.736c6.78-24.799,10.607-55.544,6.624-75.984
			c-2.89-15.176-15.728-36.548-35.221-36.548c-2.3,0-4.622,0.313-6.925,0.936c-9.253,2.525-17.158,11.937-24.879,29.615
			c-17.329,39.681-31.108,118.466-23.804,146.15c6.295,23.99,17.387,38.226,27.172,50.785
			c12.509,16.054,23.415,30.056,23.586,63.639l-8.964,3.127c-5.271,1.84-8.008,7.636-6.103,12.865
			C93.709,479.824,92.837,477.787,93.846,480H20c-5.523,0-10,4.478-10,10s4.477,10,10,10c15.15,0,404.358,0,420,0
			c5.522,0,10-4.478,10-10s-4.478-10-10-10h-23.846c0.984-2.159,0.022,0.137,19.585-53.452c1.907-5.234-0.836-11.027-6.102-12.865
			l-8.964-3.127C420.847,376.973,431.752,362.972,444.26,346.917z M81.516,334.625c-9.438-12.113-18.352-23.554-23.607-43.582
			c-3.493-13.238-0.05-49.906,8.008-85.292c10.567-46.406,22.514-64.576,26.576-66.085c0.586-0.158,1.137-0.235,1.683-0.235
			c6.682,0,14.054,12.309,15.582,20.332c4.157,21.326-2.598,60.149-11.515,83.031c-0.413,1.06-0.631,2.154-0.674,3.242
			c-10.216,23.528,17.742,63.985,32.121,85.458c3.057,4.574,9.261,5.837,13.871,2.756c4.591-3.07,5.825-9.28,2.755-13.871
			c-4.395-6.583-14.518-20.783-22.413-36.454c-10.402-20.648-8.782-28.048-8.038-29.824c0.165-0.393,0.482-1.138,1.854-1.802
			c0.979-0.237,1.963-0.407,2.974-0.407c10.896,0,27.325,16.451,42.876,42.936c14.742,25.105,25.187,52.808,26.773,65.132
			c0.556,4.169,0.652,9.283,0.289,15.258c-14.136,4.931-71.827,25.056-81.48,28.423C107.483,367.953,94.306,351.039,81.516,334.625z
			 M111.634,470.705l-15.112-41.478c19.189-6.694,104.233-36.36,114.868-40.07l7.819,22.416c2.171,6.224-0.332,13.241-5.951,16.687
			l-80.979,49.648C124.601,482.618,114.657,479.002,111.634,470.705z M377.721,477.908l-80.979-49.648
			c-5.619-3.445-8.122-10.463-5.95-16.687l7.819-22.416c4.197,1.464,110.645,38.598,114.867,40.07l-15.111,41.478
			C395.356,478.962,385.441,482.64,377.721,477.908z M319.369,375.217c-0.363-5.977-0.267-11.101,0.294-15.303
			c1.581-12.279,12.025-39.981,26.768-65.087c15.551-26.484,31.98-42.936,42.877-42.936c1.016,0,1.991,0.168,2.988,0.415
			c1.358,0.661,1.675,1.403,1.839,1.794c0.744,1.776,2.363,9.176-8.037,29.822c-7.532,14.952-16.762,28.005-22.414,36.456
			c-3.069,4.591-1.836,10.802,2.756,13.871c4.604,3.079,10.813,1.82,13.871-2.756c0.474-0.709,1.08-1.599,1.794-2.646
			c18.751-27.512,39.161-61.749,30.477-82.477c-0.046-0.11-0.102-0.225-0.15-0.336c-0.042-1.088-0.261-2.183-0.674-3.242
			c-8.917-22.883-15.671-61.707-11.507-83.073c1.521-7.981,8.893-20.29,15.574-20.29c0.546,0,1.096,0.077,1.614,0.216
			c4.13,1.528,16.077,19.697,26.645,66.104c8.058,35.387,11.5,72.055,8.004,85.306c-5.252,20.016-14.166,31.457-23.604,43.569
			c-12.789,16.415-25.966,33.329-27.635,69.015L319.369,375.217z"/>
		<path d="M241.267,176.086c27.644,7.808,55.994-8.566,63.631-35.604c7.727-27.358-8.245-55.903-35.604-63.631
			c-27.656-7.811-55.998,8.579-63.631,35.604C197.936,139.813,213.908,168.357,241.267,176.086z M224.91,117.89
			c4.645-16.443,21.904-26.603,38.948-21.792c16.745,4.73,26.521,22.202,21.792,38.948c-4.652,16.473-21.93,26.597-38.948,21.793
			C229.957,152.108,220.181,134.636,224.91,117.89z"/>
		<path d="M147.296,144.281l20.246,3.104c1.976,8.41,5.135,16.446,9.398,23.914l-12.571,16.406c-3.026,3.95-2.688,9.525,0.794,13.08
			l13.293,13.57c3.482,3.554,9.049,4.007,13.061,1.063l16.463-12.084c7.318,4.486,15.301,7.924,23.596,10.162l2.721,20.556
			c0.653,4.934,4.834,8.636,9.811,8.687l18.996,0.195c4.688,0.134,9.204-3.38,9.987-8.482l3.131-20.414
			c8.216-1.997,16.159-5.159,23.594-9.457l16.701,12.797c3.951,3.028,9.525,2.688,13.08-0.794l13.57-13.295
			c3.555-3.482,4.008-9.049,1.063-13.061l-12.452-16.964c4.479-7.408,7.72-15.161,9.837-23.003l21.248-2.813
			c4.934-0.652,8.637-4.834,8.688-9.811l0.195-18.996c0.052-4.976-3.563-9.232-8.482-9.987l-21.103-3.237
			c-1.966-8.087-5.024-15.782-9.144-22.998l13.172-17.19c3.027-3.95,2.688-9.525-0.794-13.08l-13.294-13.57
			c-3.483-3.556-9.049-4.008-13.061-1.063L301.78,50.188c-6.991-4.277-14.596-7.607-22.681-9.865l-2.838-21.438
			c-0.652-4.935-4.834-8.637-9.811-8.688l-18.996-0.195c-4.993-0.089-9.233,3.564-9.987,8.483l-3.21,20.933
			c-8.196,1.921-15.996,4.963-23.313,9.092l-16.902-12.95c-3.95-3.026-9.525-2.689-13.08,0.794l-13.57,13.293
			c-3.555,3.482-4.009,9.049-1.064,13.061l12.305,16.764c-4.468,7.212-7.917,15.085-10.197,23.271l-20.741,2.746
			c-4.934,0.652-8.636,4.834-8.688,9.811l-0.195,18.996C138.761,139.27,142.377,143.526,147.296,144.281z M158.917,124.176
			l18.98-2.513c4.272-0.565,7.701-3.803,8.51-8.035c1.987-10.396,6.188-19.956,12.484-28.418c2.622-3.523,2.638-8.346,0.039-11.887
			l-11.348-15.46l1.179-1.154l15.488,11.866c3.414,2.617,8.119,2.756,11.682,0.348c8.637-5.838,18.266-9.583,28.62-11.131
			c4.334-0.647,7.742-4.042,8.406-8.374l2.965-19.329l1.651,0.017l2.604,19.671c0.564,4.268,3.797,7.695,8.023,8.509
			c9.678,1.86,19.346,5.879,27.933,12.176c3.521,2.581,8.311,2.58,11.83-0.003l15.922-11.687l1.155,1.18l-12.111,15.807
			c-2.628,3.43-2.756,8.16-0.317,11.727c5.841,8.541,9.625,18.07,11.25,28.325c0.681,4.296,4.061,7.659,8.36,8.319l19.438,2.981
			l-0.017,1.651l-19.546,2.587c-4.3,0.568-7.742,3.844-8.524,8.11c-1.933,10.546-6.227,20.171-12.074,28.235
			c-2.552,3.52-2.538,8.283,0.034,11.787l11.444,15.591l-1.18,1.156l-15.352-11.763c-3.449-2.643-8.213-2.756-11.785-0.277
			c-8.604,5.976-18.438,9.916-28.813,11.546c-4.303,0.676-7.672,4.059-8.333,8.362l-2.876,18.751l-1.65-0.017l-2.496-18.856
			c-0.57-4.304-3.852-7.748-8.123-8.525c-10.34-1.883-20.271-6.164-28.72-12.382c-3.522-2.593-8.32-2.596-11.845-0.007
			l-15.128,11.104l-1.155-1.18l11.514-15.026c2.632-3.436,2.756-8.173,0.307-11.741c-5.959-8.681-9.869-18.652-11.421-29.115
			c-0.644-4.339-4.04-7.752-8.376-8.417l-18.643-2.858L158.917,124.176z"/>
		<circle cx="388.146" cy="450.548" r="8.862"/>
		<circle cx="121.854" cy="450.548" r="8.862"/>
	</g>
</g>
<g id="Layer_1">
</g>
</svg>
