<?xml version="1.0" encoding="iso-8859-1"?>
<!-- Generator: Adobe Illustrator 19.0.0, SVG Export Plug-In . SVG Version: 6.00 Build 0)  -->
<svg version="1.1" id="Layer_1" xmlns="http://www.w3.org/2000/svg" xmlns:xlink="http://www.w3.org/1999/xlink" x="0px" y="0px"
	 viewBox="0 0 297.001 297.001" style="enable-background:new 0 0 297.001 297.001;" xml:space="preserve">
<g>
	<g>
		<path d="M227.289,106.022c-2.303,0-4.62,0.117-6.931,0.349c-8.746-32.121-38.001-54.816-71.858-54.816
			S85.388,74.25,76.642,106.371c-2.311-0.232-4.628-0.349-6.931-0.349C31.272,106.022,0,137.294,0,175.733
			c0,38.439,31.272,69.712,69.711,69.712H227.29c38.439,0,69.711-31.273,69.711-69.712
			C297.001,137.294,265.728,106.022,227.289,106.022z M136.23,196.355c2.895,2.286,3.389,6.487,1.102,9.382
			c-1.318,1.669-3.273,2.54-5.246,2.54c-1.45,0-2.91-0.47-4.136-1.438l-42.939-33.913c-1.605-1.267-2.54-3.197-2.54-5.242
			c0-2.045,0.935-3.975,2.54-5.242l42.939-33.913c2.891-2.286,7.095-1.796,9.382,1.102c2.287,2.894,1.793,7.095-1.102,9.382
			l-36.301,28.672L136.23,196.355z M211.988,172.925l-42.939,33.913c-1.225,0.968-2.686,1.438-4.136,1.438
			c-1.973,0-3.928-0.87-5.246-2.54c-2.287-2.894-1.793-7.095,1.102-9.382l36.301-28.672l-36.301-28.672
			c-2.895-2.286-3.389-6.487-1.102-9.382c2.287-2.895,6.489-3.387,9.382-1.102l42.939,33.913c1.605,1.267,2.54,3.197,2.54,5.242
			C214.528,169.727,213.593,171.659,211.988,172.925z"/>
	</g>
</g>
<g>
</g>
<g>
</g>
<g>
</g>
<g>
</g>
<g>
</g>
<g>
</g>
<g>
</g>
<g>
</g>
<g>
</g>
<g>
</g>
<g>
</g>
<g>
</g>
<g>
</g>
<g>
</g>
<g>
</g>
</svg>
